<?xml version="1.0" encoding="UTF-8" standalone="no"?>
<!-- Created by Flowgorithm 4.5.0 (http://flowgorithm.org) -->

<svg xmlns:svg="http://www.w3.org/2000/svg" xmlns="http://www.w3.org/2000/svg" version="1.1" width="1475" height="4800">
	<g>
		<polyline fill="none" stroke="#404040" stroke-width="6" stroke-dasharray="none" points="300,125 300,300"/>
		<polyline fill="none" stroke="#404040" stroke-width="6" stroke-dasharray="none" points="300,2325 300,4661"/>
		<polygon fill="#404040" stroke="none" points="300,4675 313,4650 286,4650"/>
		<g>
			<path fill="#F0E0FF" stroke="#9070A0" stroke-width="3" stroke-dasharray="none" d="M 200,25 A 50 50, 0, 0 0, 200 125 L 400,125 A 50 50, 0, 0 0, 400 25 Z"/>
			<text x="300" y="40" fill="#301040" font-family="Arial" font-size="32pt" text-anchor="middle" direction="ltr">
				<tspan x="300" dy="50" unicode-bidi="embed">Main</tspan>
			</text>
		</g>
		<g>
			<path fill="#F0E0FF" stroke="#9070A0" stroke-width="3" stroke-dasharray="none" d="M 200,4675 A 50 50, 0, 0 0, 200 4775 L 400,4775 A 50 50, 0, 0 0, 400 4675 Z"/>
			<text x="300" y="4690" fill="#301040" font-family="Arial" font-size="32pt" text-anchor="middle" direction="ltr">
				<tspan x="300" dy="50" unicode-bidi="embed">End</tspan>
			</text>
		</g>
		<g>
			<polyline fill="none" stroke="#404040" stroke-width="6" stroke-dasharray="none" points="300,300 300,461"/>
			<polygon fill="#404040" stroke="none" points="300,475 313,450 286,450"/>
			<polyline fill="none" stroke="#404040" stroke-width="6" stroke-dasharray="none" points="300,600 300,661"/>
			<polygon fill="#404040" stroke="none" points="300,675 313,650 286,650"/>
			<polyline fill="none" stroke="#404040" stroke-width="6" stroke-dasharray="none" points="300,775 300,836"/>
			<polygon fill="#404040" stroke="none" points="300,850 313,825 286,825"/>
			<polyline fill="none" stroke="#404040" stroke-width="6" stroke-dasharray="none" points="300,975 300,1036"/>
			<polygon fill="#404040" stroke="none" points="300,1050 313,1025 286,1025"/>
			<polyline fill="none" stroke="#404040" stroke-width="6" stroke-dasharray="none" points="300,1150 300,1211"/>
			<polygon fill="#404040" stroke="none" points="300,1225 313,1200 286,1200"/>
			<polyline fill="none" stroke="#404040" stroke-width="6" stroke-dasharray="none" points="300,1350 300,1411"/>
			<polygon fill="#404040" stroke="none" points="300,1425 313,1400 286,1400"/>
			<polyline fill="none" stroke="#404040" stroke-width="6" stroke-dasharray="none" points="300,1525 300,1586"/>
			<polygon fill="#404040" stroke="none" points="300,1600 313,1575 286,1575"/>
			<polyline fill="none" stroke="#404040" stroke-width="6" stroke-dasharray="none" points="300,1725 300,1786"/>
			<polygon fill="#404040" stroke="none" points="300,1800 313,1775 286,1775"/>
			<polyline fill="none" stroke="#404040" stroke-width="6" stroke-dasharray="none" points="300,1900 300,1961"/>
			<polygon fill="#404040" stroke="none" points="300,1975 313,1950 286,1950"/>
			<polyline fill="none" stroke="#404040" stroke-width="6" stroke-dasharray="none" points="300,2125 300,2211"/>
			<polygon fill="#404040" stroke="none" points="300,2225 313,2200 286,2200"/>
			<g>
				<polyline fill="none" stroke="#404040" stroke-width="6" stroke-dasharray="6,12" points="300,300 425,300"/>
				<g>
					<path fill="#FFFFFF" stroke="#404040" stroke-width="3" stroke-dasharray="6,6" d="M 425,200 L 425,400 L 1175,400 L 1175,200 Z"/>
					<text x="800" y="215" fill="#303030" font-family="Arial" font-size="32pt" text-anchor="middle" direction="ltr">
						<tspan x="800" dy="50" unicode-bidi="embed">Identifiers prefixed with m are members</tspan>
						<tspan x="800" dy="50" unicode-bidi="embed"> of the RomanType class. Identifiers</tspan>
						<tspan x="800" dy="50" unicode-bidi="embed"> prefixed with k are constants.</tspan>
					</text>
				</g>
			</g>
			<g>
				<path fill="#FFFFD8" stroke="#A0A078" stroke-width="3" stroke-dasharray="none" d="M 25,475 L 25,600 L 575,600 L 575,475 Z"/>
				<polyline fill="none" stroke="#A0A078" stroke-width="3" stroke-dasharray="none" points="25,500 575,500"/>
				<polyline fill="none" stroke="#A0A078" stroke-width="3" stroke-dasharray="none" points="50,475 50,600"/>
				<text x="312" y="515" fill="#404018" font-family="Arial" font-size="32pt" text-anchor="middle" direction="ltr">
					<tspan x="312" dy="50" unicode-bidi="embed">Integer kNumOfMenuItems</tspan>
				</text>
			</g>
			<g>
				<path fill="#FFFFD8" stroke="#A0A078" stroke-width="3" stroke-dasharray="none" d="M 75,675 L 75,775 L 525,775 L 525,675 Z"/>
				<text x="300" y="690" fill="#404018" font-family="Arial" font-size="32pt" text-anchor="middle" direction="ltr">
					<tspan x="300" dy="50" unicode-bidi="embed">kNumOfMenuItems = 3</tspan>
				</text>
			</g>
			<g>
				<path fill="#FFFFD8" stroke="#A0A078" stroke-width="3" stroke-dasharray="none" d="M 75,850 L 75,975 L 525,975 L 525,850 Z"/>
				<polyline fill="none" stroke="#A0A078" stroke-width="3" stroke-dasharray="none" points="75,875 525,875"/>
				<polyline fill="none" stroke="#A0A078" stroke-width="3" stroke-dasharray="none" points="100,850 100,975"/>
				<text x="312" y="890" fill="#404018" font-family="Arial" font-size="32pt" text-anchor="middle" direction="ltr">
					<tspan x="312" dy="50" unicode-bidi="embed">String mRomanNum</tspan>
				</text>
			</g>
			<g>
				<path fill="#FFFFD8" stroke="#A0A078" stroke-width="3" stroke-dasharray="none" d="M 100,1050 L 100,1150 L 500,1150 L 500,1050 Z"/>
				<text x="300" y="1065" fill="#404018" font-family="Arial" font-size="32pt" text-anchor="middle" direction="ltr">
					<tspan x="300" dy="50" unicode-bidi="embed">mRomanNum = &quot;&quot;</tspan>
				</text>
			</g>
			<g>
				<path fill="#FFFFD8" stroke="#A0A078" stroke-width="3" stroke-dasharray="none" d="M 100,1225 L 100,1350 L 500,1350 L 500,1225 Z"/>
				<polyline fill="none" stroke="#A0A078" stroke-width="3" stroke-dasharray="none" points="100,1250 500,1250"/>
				<polyline fill="none" stroke="#A0A078" stroke-width="3" stroke-dasharray="none" points="125,1225 125,1350"/>
				<text x="312" y="1265" fill="#404018" font-family="Arial" font-size="32pt" text-anchor="middle" direction="ltr">
					<tspan x="312" dy="50" unicode-bidi="embed">Integer mDecimal</tspan>
				</text>
			</g>
			<g>
				<path fill="#FFFFD8" stroke="#A0A078" stroke-width="3" stroke-dasharray="none" d="M 150,1425 L 150,1525 L 450,1525 L 450,1425 Z"/>
				<text x="300" y="1440" fill="#404018" font-family="Arial" font-size="32pt" text-anchor="middle" direction="ltr">
					<tspan x="300" dy="50" unicode-bidi="embed">mDecimal = 0</tspan>
				</text>
			</g>
			<g>
				<path fill="#FFFFD8" stroke="#A0A078" stroke-width="3" stroke-dasharray="none" d="M 125,1600 L 125,1725 L 475,1725 L 475,1600 Z"/>
				<polyline fill="none" stroke="#A0A078" stroke-width="3" stroke-dasharray="none" points="125,1625 475,1625"/>
				<polyline fill="none" stroke="#A0A078" stroke-width="3" stroke-dasharray="none" points="150,1600 150,1725"/>
				<text x="312" y="1640" fill="#404018" font-family="Arial" font-size="32pt" text-anchor="middle" direction="ltr">
					<tspan x="312" dy="50" unicode-bidi="embed">Integer choice</tspan>
				</text>
			</g>
			<g>
				<path fill="#F0E0FF" stroke="#9070A0" stroke-width="3" stroke-dasharray="none" d="M 150,1800 L 150,1900 L 450,1900 L 450,1800 Z"/>
				<polyline fill="none" stroke="#9070A0" stroke-width="3" stroke-dasharray="none" points="175,1800 175,1900"/>
				<polyline fill="none" stroke="#9070A0" stroke-width="3" stroke-dasharray="none" points="425,1800 425,1900"/>
				<text x="300" y="1815" fill="#301040" font-family="Arial" font-size="32pt" text-anchor="middle" direction="ltr">
					<tspan x="300" dy="50" unicode-bidi="embed">printMenu</tspan>
				</text>
			</g>
			<g>
				<path fill="#FFFFD8" stroke="#A0A078" stroke-width="3" stroke-dasharray="none" d="M 75,1975 L 75,2125 L 525,2125 L 525,1975 Z"/>
				<text x="300" y="1990" fill="#404018" font-family="Arial" font-size="32pt" text-anchor="middle" direction="ltr">
					<tspan x="300" dy="50" unicode-bidi="embed">choice = readIntChoice</tspan>
					<tspan x="300" dy="50" unicode-bidi="embed">(kNumOfMenuItems)</tspan>
				</text>
			</g>
			<g>
				<polyline fill="none" stroke="#404040" stroke-width="6" stroke-dasharray="none" points="475,2275 800,2275 800,2361"/>
				<polygon fill="#404040" stroke="none" points="800,2375 813,2350 786,2350"/>
				<polyline fill="none" stroke="#404040" stroke-width="6" stroke-dasharray="none" points="800,4500 800,4575 350,4575 350,2338"/>
				<polygon fill="#404040" stroke="none" points="350,2325 336,2349 363,2349"/>
				<g>
					<polyline fill="none" stroke="#404040" stroke-width="6" stroke-dasharray="none" points="800,2950 800,3011"/>
					<polygon fill="#404040" stroke="none" points="800,3025 813,3000 786,3000"/>
					<polyline fill="none" stroke="#404040" stroke-width="6" stroke-dasharray="none" points="800,3550 800,3611"/>
					<polygon fill="#404040" stroke="none" points="800,3625 813,3600 786,3600"/>
					<polyline fill="none" stroke="#404040" stroke-width="6" stroke-dasharray="none" points="800,4100 800,4161"/>
					<polygon fill="#404040" stroke="none" points="800,4175 813,4150 786,4150"/>
					<polyline fill="none" stroke="#404040" stroke-width="6" stroke-dasharray="none" points="800,4275 800,4336"/>
					<polygon fill="#404040" stroke="none" points="800,4350 813,4325 786,4325"/>
					<g>
						<polyline fill="none" stroke="#404040" stroke-width="6" stroke-dasharray="none" points="950,2475 1125,2475 1125,2611"/>
						<polygon fill="#404040" stroke="none" points="1125,2625 1138,2600 1111,2600"/>
						<polyline fill="none" stroke="#404040" stroke-width="6" stroke-dasharray="none" points="1125,2825 1125,2925 838,2925"/>
						<polygon fill="#404040" stroke="none" points="825,2925 849,2938 849,2911"/>
						<polyline fill="none" stroke="#404040" stroke-width="6" stroke-dasharray="none" points="650,2475 475,2475 475,2925 761,2925"/>
						<polygon fill="#404040" stroke="none" points="775,2925 750,2911 750,2938"/>
						<g>
							<path fill="#FFD8D8" stroke="#A07878" stroke-width="3" stroke-dasharray="none" d="M 800,2375 L 625,2475 L 800,2575 L 975,2475 Z"/>
							<text x="800" y="2440" fill="#401818" font-family="Arial" font-size="32pt" text-anchor="middle" direction="ltr">
								<tspan x="800" dy="50" unicode-bidi="embed">choice == 1</tspan>
							</text>
						</g>
						<g>
							<path fill="#FFFFD8" stroke="#A0A078" stroke-width="3" stroke-dasharray="none" d="M 875,2625 L 875,2825 L 1375,2825 L 1375,2625 Z"/>
							<text x="1125" y="2640" fill="#404018" font-family="Arial" font-size="32pt" text-anchor="middle" direction="ltr">
								<tspan x="1125" dy="50" unicode-bidi="embed">mDecimal =</tspan>
								<tspan x="1125" dy="50" unicode-bidi="embed"> convertRomanToDecimal</tspan>
								<tspan x="1125" dy="50" unicode-bidi="embed">(mRomanNum)</tspan>
							</text>
						</g>
						<g>
						</g>
						<ellipse cx="800" cy="2925" rx="25" ry="25" fill="#FFD8D8" stroke="#A07878" stroke-width="3"/>
						<text x="1050" y="2390" fill="#404040" font-family="Arial" font-size="32pt" text-anchor="middle" direction="ltr">
							<tspan x="1050" dy="50" unicode-bidi="embed">True</tspan>
						</text>
						<text x="550" y="2390" fill="#404040" font-family="Arial" font-size="32pt" text-anchor="middle" direction="ltr">
							<tspan x="550" dy="50" unicode-bidi="embed">False</tspan>
						</text>
					</g>
					<g>
						<polyline fill="none" stroke="#404040" stroke-width="6" stroke-dasharray="none" points="950,3125 1125,3125 1125,3261"/>
						<polygon fill="#404040" stroke="none" points="1125,3275 1138,3250 1111,3250"/>
						<polyline fill="none" stroke="#404040" stroke-width="6" stroke-dasharray="none" points="1125,3425 1125,3525 838,3525"/>
						<polygon fill="#404040" stroke="none" points="825,3525 849,3538 849,3511"/>
						<polyline fill="none" stroke="#404040" stroke-width="6" stroke-dasharray="none" points="650,3125 475,3125 475,3525 761,3525"/>
						<polygon fill="#404040" stroke="none" points="775,3525 750,3511 750,3538"/>
						<g>
							<path fill="#FFD8D8" stroke="#A07878" stroke-width="3" stroke-dasharray="none" d="M 800,3025 L 625,3125 L 800,3225 L 975,3125 Z"/>
							<text x="800" y="3090" fill="#401818" font-family="Arial" font-size="32pt" text-anchor="middle" direction="ltr">
								<tspan x="800" dy="50" unicode-bidi="embed">choice == 2</tspan>
							</text>
						</g>
						<g>
							<path fill="#F0E0FF" stroke="#9070A0" stroke-width="3" stroke-dasharray="none" d="M 875,3275 L 875,3425 L 1375,3425 L 1375,3275 Z"/>
							<polyline fill="none" stroke="#9070A0" stroke-width="3" stroke-dasharray="none" points="900,3275 900,3425"/>
							<polyline fill="none" stroke="#9070A0" stroke-width="3" stroke-dasharray="none" points="1350,3275 1350,3425"/>
							<text x="1125" y="3290" fill="#301040" font-family="Arial" font-size="32pt" text-anchor="middle" direction="ltr">
								<tspan x="1125" dy="50" unicode-bidi="embed">displayRomanNumeral</tspan>
								<tspan x="1125" dy="50" unicode-bidi="embed">(mRomanNum)</tspan>
							</text>
						</g>
						<g>
						</g>
						<ellipse cx="800" cy="3525" rx="25" ry="25" fill="#FFD8D8" stroke="#A07878" stroke-width="3"/>
						<text x="1050" y="3040" fill="#404040" font-family="Arial" font-size="32pt" text-anchor="middle" direction="ltr">
							<tspan x="1050" dy="50" unicode-bidi="embed">True</tspan>
						</text>
						<text x="550" y="3040" fill="#404040" font-family="Arial" font-size="32pt" text-anchor="middle" direction="ltr">
							<tspan x="550" dy="50" unicode-bidi="embed">False</tspan>
						</text>
					</g>
					<g>
						<polyline fill="none" stroke="#404040" stroke-width="6" stroke-dasharray="none" points="950,3725 1150,3725 1150,3861"/>
						<polygon fill="#404040" stroke="none" points="1150,3875 1163,3850 1136,3850"/>
						<polyline fill="none" stroke="#404040" stroke-width="6" stroke-dasharray="none" points="1150,3975 1150,4075 838,4075"/>
						<polygon fill="#404040" stroke="none" points="825,4075 849,4088 849,4061"/>
						<polyline fill="none" stroke="#404040" stroke-width="6" stroke-dasharray="none" points="650,3725 475,3725 475,4075 761,4075"/>
						<polygon fill="#404040" stroke="none" points="775,4075 750,4061 750,4088"/>
						<g>
							<path fill="#FFD8D8" stroke="#A07878" stroke-width="3" stroke-dasharray="none" d="M 800,3625 L 625,3725 L 800,3825 L 975,3725 Z"/>
							<text x="800" y="3690" fill="#401818" font-family="Arial" font-size="32pt" text-anchor="middle" direction="ltr">
								<tspan x="800" dy="50" unicode-bidi="embed">choice == 3</tspan>
							</text>
						</g>
						<g>
							<path fill="#F0E0FF" stroke="#9070A0" stroke-width="3" stroke-dasharray="none" d="M 850,3875 L 850,3975 L 1450,3975 L 1450,3875 Z"/>
							<polyline fill="none" stroke="#9070A0" stroke-width="3" stroke-dasharray="none" points="875,3875 875,3975"/>
							<polyline fill="none" stroke="#9070A0" stroke-width="3" stroke-dasharray="none" points="1425,3875 1425,3975"/>
							<text x="1150" y="3890" fill="#301040" font-family="Arial" font-size="32pt" text-anchor="middle" direction="ltr">
								<tspan x="1150" dy="50" unicode-bidi="embed">displayDecimal(mDecimal)</tspan>
							</text>
						</g>
						<g>
						</g>
						<ellipse cx="800" cy="4075" rx="25" ry="25" fill="#FFD8D8" stroke="#A07878" stroke-width="3"/>
						<text x="1050" y="3640" fill="#404040" font-family="Arial" font-size="32pt" text-anchor="middle" direction="ltr">
							<tspan x="1050" dy="50" unicode-bidi="embed">True</tspan>
						</text>
						<text x="550" y="3640" fill="#404040" font-family="Arial" font-size="32pt" text-anchor="middle" direction="ltr">
							<tspan x="550" dy="50" unicode-bidi="embed">False</tspan>
						</text>
					</g>
					<g>
						<path fill="#F0E0FF" stroke="#9070A0" stroke-width="3" stroke-dasharray="none" d="M 650,4175 L 650,4275 L 950,4275 L 950,4175 Z"/>
						<polyline fill="none" stroke="#9070A0" stroke-width="3" stroke-dasharray="none" points="675,4175 675,4275"/>
						<polyline fill="none" stroke="#9070A0" stroke-width="3" stroke-dasharray="none" points="925,4175 925,4275"/>
						<text x="800" y="4190" fill="#301040" font-family="Arial" font-size="32pt" text-anchor="middle" direction="ltr">
							<tspan x="800" dy="50" unicode-bidi="embed">printMenu</tspan>
						</text>
					</g>
					<g>
						<path fill="#FFFFD8" stroke="#A0A078" stroke-width="3" stroke-dasharray="none" d="M 575,4350 L 575,4500 L 1025,4500 L 1025,4350 Z"/>
						<text x="800" y="4365" fill="#404018" font-family="Arial" font-size="32pt" text-anchor="middle" direction="ltr">
							<tspan x="800" dy="50" unicode-bidi="embed">choice = readIntChoice</tspan>
							<tspan x="800" dy="50" unicode-bidi="embed">(kNumOfMenuItems)</tspan>
						</text>
					</g>
				</g>
				<g>
					<path fill="#FFE0B0" stroke="#A08050" stroke-width="3" stroke-dasharray="none" d="M 175,2225 L 125,2275 L 175,2325 L 425,2325 L 475,2275 L 425,2225 Z"/>
					<text x="300" y="2240" fill="#402000" font-family="Arial" font-size="32pt" text-anchor="middle" direction="ltr">
						<tspan x="300" dy="50" unicode-bidi="embed">choice != -1</tspan>
					</text>
				</g>
				<text x="550" y="2190" fill="#404040" font-family="Arial" font-size="32pt" text-anchor="middle" direction="ltr">
					<tspan x="550" dy="50" unicode-bidi="embed">True</tspan>
				</text>
				<text x="225" y="2340" fill="#404040" font-family="Arial" font-size="32pt" text-anchor="middle" direction="ltr">
					<tspan x="225" dy="50" unicode-bidi="embed">False</tspan>
				</text>
			</g>
		</g>
	</g>
</svg>
