<svg xmlns="http://www.w3.org/2000/svg" xmlns:xlink="http://www.w3.org/1999/xlink" contentStyleType="text/css" data-diagram-type="CLASS" height="537.5px" preserveAspectRatio="none" style="width:443px;height:537px;" version="1.1" viewBox="0 0 443 537" width="443.75px" zoomAndPan="magnify"><defs><linearGradient id="glhym0rcju2zp0" x1="50%" x2="50%" y1="0%" y2="100%"><stop offset="0%" stop-color="#4DABF5"/><stop offset="100%" stop-color="#2196F3"/></linearGradient><filter height="300%" id="flhym0rcju2zp" width="300%" x="-1" y="-1"><feGaussianBlur result="blurOut" stdDeviation="2.0833"/><feColorMatrix in="blurOut" result="blurOut2" type="matrix" values="0 0 0 0 0 0 0 0 0 0 0 0 0 0 0 0 0 0 .4 0"/><feOffset dx="4.1667" dy="4.1667" in="blurOut2" result="blurOut3"/><feBlend in="SourceGraphic" in2="blurOut3" mode="normal"/></filter><linearGradient id="glhym0rcju2zp1" x1="50%" x2="50%" y1="0%" y2="100%"><stop offset="0%" stop-color="#2196F3"/><stop offset="100%" stop-color="#1A78C2"/></linearGradient></defs><g><!--class unorderedLinkedList--><g class="entity" data-entity="unorderedLinkedList" data-source-line="4" data-uid="ent0002" id="entity_unorderedLinkedList"><rect fill="url(#glhym0rcju2zp0)" filter="url(#flhym0rcju2zp)" height="61.8423" rx="4.1667" ry="4.1667" style="stroke:#2196F3;stroke-width:1.0417;" width="247.0596" x="98.4688" y="20.8333"/><rect fill="url(#glhym0rcju2zp1)" height="45.1757" rx="4.1667" ry="4.1667" style="stroke:url(#glhym0rcju2zp1);stroke-width:1.0417;" width="247.0596" x="98.4688" y="20.8333"/><rect fill="url(#glhym0rcju2zp1)" height="4.1667" style="stroke:url(#glhym0rcju2zp1);stroke-width:1.0417;" width="247.0596" x="98.4688" y="61.8423"/><rect fill="none" height="61.8423" rx="4.1667" ry="4.1667" style="stroke:#2196F3;stroke-width:1.0417;" width="247.0596" x="98.4688" y="20.8333"/><ellipse cx="113.0521" cy="43.4212" fill="#FFFFFF" rx="10.4167" ry="10.4167" style="stroke:#CCCCCC;stroke-width:1.0417;"/><path d="M114.9625,47.8462 Q114.5352,48.0659 114.0653,48.1758 Q113.5953,48.2857 113.0765,48.2857 Q111.2332,48.2857 110.2628,47.0711 Q109.2923,45.8565 109.2923,43.5616 Q109.2923,41.2605 110.2628,40.0459 Q111.2332,38.8313 113.0765,38.8313 Q113.5953,38.8313 114.0714,38.9412 Q114.5474,39.0511 114.9625,39.2708 L114.9625,41.2727 Q114.4986,40.8455 114.0622,40.6471 Q113.6258,40.4488 113.1619,40.4488 Q112.1732,40.4488 111.6696,41.2331 Q111.1661,42.0174 111.1661,43.5616 Q111.1661,45.0996 111.6696,45.8839 Q112.1732,46.6682 113.1619,46.6682 Q113.6258,46.6682 114.0622,46.4699 Q114.4986,46.2715 114.9625,45.8443 Z " fill="#FFFFFF"/><text fill="#FFFFFF" font-family="Verdana" font-size="11.4583" lengthAdjust="spacing" textLength="116.6926" x="137.0104" y="47.9782">unorderedLinkedList</text><rect fill="url(#glhym0rcju2zp0)" height="38.1083" style="stroke:#2196F3;stroke-width:1.0417;stroke-dasharray:2.0,2.0;" width="76.2004" x="272.453" y="17.7083"/><text fill="#222222" font-family="Verdana" font-size="12.5" font-style="italic" lengthAdjust="spacing" textLength="53.2837" x="283.9114" y="41.7338">dvdType</text><line style="stroke:#2196F3;stroke-width:1.0417;" x1="99.5104" x2="344.4867" y1="66.009" y2="66.009"/><line style="stroke:#2196F3;stroke-width:1.0417;" x1="99.5104" x2="344.4867" y1="74.3423" y2="74.3423"/></g><!--class dvdListType--><g class="entity" data-entity="dvdListType" data-source-line="5" data-uid="ent0003" id="entity_dvdListType"><rect fill="url(#glhym0rcju2zp0)" filter="url(#flhym0rcju2zp)" height="374.6735" rx="4.1667" ry="4.1667" style="stroke:#2196F3;stroke-width:1.0417;" width="408.5714" x="17.7083" y="145.1771"/><rect fill="url(#glhym0rcju2zp1)" height="45.1757" rx="4.1667" ry="4.1667" style="stroke:url(#glhym0rcju2zp1);stroke-width:1.0417;" width="408.5714" x="17.7083" y="145.1771"/><rect fill="url(#glhym0rcju2zp1)" height="4.1667" style="stroke:url(#glhym0rcju2zp1);stroke-width:1.0417;" width="408.5714" x="17.7083" y="186.1861"/><rect fill="none" height="374.6735" rx="4.1667" ry="4.1667" style="stroke:#2196F3;stroke-width:1.0417;" width="408.5714" x="17.7083" y="145.1771"/><ellipse cx="172.9741" cy="167.7649" fill="#FFFFFF" rx="10.4167" ry="10.4167" style="stroke:#CCCCCC;stroke-width:1.0417;"/><path d="M174.8845,172.19 Q174.4573,172.4097 173.9873,172.5196 Q173.5174,172.6294 172.9986,172.6294 Q171.1553,172.6294 170.1848,171.4148 Q169.2144,170.2002 169.2144,167.9053 Q169.2144,165.6043 170.1848,164.3897 Q171.1553,163.1751 172.9986,163.1751 Q173.5174,163.1751 173.9934,163.2849 Q174.4695,163.3948 174.8845,163.6145 L174.8845,165.6165 Q174.4207,165.1892 173.9843,164.9909 Q173.5479,164.7925 173.084,164.7925 Q172.0952,164.7925 171.5917,165.5768 Q171.0882,166.3611 171.0882,167.9053 Q171.0882,169.4434 171.5917,170.2277 Q172.0952,171.012 173.084,171.012 Q173.5479,171.012 173.9843,170.8136 Q174.4207,170.6153 174.8845,170.188 Z " fill="#FFFFFF"/><text fill="#FFFFFF" font-family="Verdana" font-size="11.4583" lengthAdjust="spacing" textLength="68.8731" x="203.1825" y="172.322">dvdListType</text><line style="stroke:#2196F3;stroke-width:1.0417;" x1="18.75" x2="425.238" y1="190.3528" y2="190.3528"/><line style="stroke:#2196F3;stroke-width:1.0417;" x1="18.75" x2="425.238" y1="198.6861" y2="198.6861"/><text fill="#FFFFFF" font-family="Verdana" font-size="11.4583" lengthAdjust="spacing" textLength="375.238" x="34.375" y="224.7893">-searchDVDList(string, bool, nodeType&lt;dvdType&gt;*) const : void</text><text fill="#FFFFFF" font-family="Verdana" font-size="11.4583" lengthAdjust="spacing" textLength="207.6879" x="34.375" y="259.5483">+dvdSearch(string title) const: bool</text><text fill="#FFFFFF" font-family="Verdana" font-size="11.4583" lengthAdjust="spacing" textLength="237.3856" x="34.375" y="294.3073">+isDVDAvailable(string title) const : bool</text><text fill="#FFFFFF" font-family="Verdana" font-size="11.4583" lengthAdjust="spacing" textLength="192.8167" x="34.375" y="329.0663">+dvdCheckOut(string title) : void</text><text fill="#FFFFFF" font-family="Verdana" font-size="11.4583" lengthAdjust="spacing" textLength="184.1054" x="34.375" y="363.8254">+dvdCheckIn(string title) : void</text><text fill="#FFFFFF" font-family="Verdana" font-size="11.4583" lengthAdjust="spacing" textLength="231.5837" x="34.375" y="398.5844">+dvdCheckTitle(string title) const : bool</text><text fill="#FFFFFF" font-family="Verdana" font-size="11.4583" lengthAdjust="spacing" textLength="275" x="34.375" y="433.3434">+dvdUpdateInStock(int num, string title) : void</text><text fill="#FFFFFF" font-family="Verdana" font-size="11.4583" lengthAdjust="spacing" textLength="291.3203" x="34.375" y="468.1024">+dvdSetCopiesInStock(string title, int num) : void</text><text fill="#FFFFFF" font-family="Verdana" font-size="11.4583" lengthAdjust="spacing" textLength="164.21" x="34.375" y="502.8614">+dvdPrintTitle() const : void</text></g><!--reverse link unorderedLinkedList to dvdListType--><g class="link" data-entity-1="unorderedLinkedList" data-entity-2="dvdListType" data-source-line="16" data-uid="lnk4" id="link_unorderedLinkedList_dvdListType"><path codeLine="16" d="M221.9896,101.9062 C221.9896,118.1979 221.9896,121.0313 221.9896,144.6771" fill="none" id="unorderedLinkedList-backto-dvdListType" style="stroke:#2196F3;stroke-width:3.125;"/><polygon fill="none" points="221.9896,83.1562,215.7396,101.9062,228.2396,101.9062,221.9896,83.1562" style="stroke:#2196F3;stroke-width:3.125;"/></g><!--SRC=[XP5DQyCm38Rl_XNQhTiIsBcKGMalWS46wNPtOh68E7AmbS2-_lliB2jPwUZ5OFdHynhfIXhi43ejw4chq1BtskiEQgj3s8fugWR1edPSqZl2dLBJ2mpil46Fve6uJMUGZHdDuQt7-nc9rrHE9VXGEGJKlcxsB_jKNOMevjSCAkTi1kmC9l3ekBc6c1a4rZ0wCkeswSh9CBU2a5YSiVNaYHI56B0TDLbTMJo7mf6Dnbs3TViuo0cu39sGWYyHXrI_cFVScpZgWajnTRiY5k2Xo-1_TucoSprX-ErPeXdCXhyzJv6Gd_-SJF5BdTaRR3xpVBcjRm00]--></g></svg>