<?xml version="1.0" encoding="UTF-8" standalone="no"?>
<!-- Created by Flowgorithm 4.5.0 (http://flowgorithm.org) -->

<svg xmlns:svg="http://www.w3.org/2000/svg" xmlns="http://www.w3.org/2000/svg" version="1.1" width="7152" height="14016">
	<g>
		<polyline fill="none" stroke="#404040" stroke-width="12" stroke-dasharray="none" points="768,240 768,528"/>
		<polyline fill="none" stroke="#404040" stroke-width="12" stroke-dasharray="none" points="768,4752 768,13749"/>
		<polygon fill="#404040" stroke="none" points="768,13776 794,13729 741,13729"/>
		<g>
			<path fill="#F0E0FF" stroke="#9070A0" stroke-width="6" stroke-dasharray="none" d="M 576,48 A 96 96, 0, 0 0, 576 240 L 960,240 A 96 96, 0, 0 0, 960 48 Z"/>
			<text x="768" y="76" fill="#301040" font-family="Arial" font-size="32pt" text-anchor="middle" direction="ltr">
				<tspan x="768" dy="96" unicode-bidi="embed">Main</tspan>
			</text>
		</g>
		<g>
			<path fill="#F0E0FF" stroke="#9070A0" stroke-width="6" stroke-dasharray="none" d="M 576,13776 A 96 96, 0, 0 0, 576 13968 L 960,13968 A 96 96, 0, 0 0, 960 13776 Z"/>
			<text x="768" y="13804" fill="#301040" font-family="Arial" font-size="32pt" text-anchor="middle" direction="ltr">
				<tspan x="768" dy="96" unicode-bidi="embed">End</tspan>
			</text>
		</g>
		<g>
			<polyline fill="none" stroke="#404040" stroke-width="12" stroke-dasharray="none" points="768,528 768,789"/>
			<polygon fill="#404040" stroke="none" points="768,816 794,769 741,769"/>
			<polyline fill="none" stroke="#404040" stroke-width="12" stroke-dasharray="none" points="768,1056 768,1173"/>
			<polygon fill="#404040" stroke="none" points="768,1200 794,1153 741,1153"/>
			<polyline fill="none" stroke="#404040" stroke-width="12" stroke-dasharray="none" points="768,1440 768,1557"/>
			<polygon fill="#404040" stroke="none" points="768,1584 794,1537 741,1537"/>
			<polyline fill="none" stroke="#404040" stroke-width="12" stroke-dasharray="none" points="768,1776 768,1893"/>
			<polygon fill="#404040" stroke="none" points="768,1920 794,1873 741,1873"/>
			<polyline fill="none" stroke="#404040" stroke-width="12" stroke-dasharray="none" points="768,2160 768,2277"/>
			<polygon fill="#404040" stroke="none" points="768,2304 794,2257 741,2257"/>
			<polyline fill="none" stroke="#404040" stroke-width="12" stroke-dasharray="none" points="768,2544 768,2661"/>
			<polygon fill="#404040" stroke="none" points="768,2688 794,2641 741,2641"/>
			<polyline fill="none" stroke="#404040" stroke-width="12" stroke-dasharray="none" points="768,2880 768,2997"/>
			<polygon fill="#404040" stroke="none" points="768,3024 794,2977 741,2977"/>
			<polyline fill="none" stroke="#404040" stroke-width="12" stroke-dasharray="none" points="768,3264 768,3381"/>
			<polygon fill="#404040" stroke="none" points="768,3408 794,3361 741,3361"/>
			<polyline fill="none" stroke="#404040" stroke-width="12" stroke-dasharray="none" points="768,3600 768,3717"/>
			<polygon fill="#404040" stroke="none" points="768,3744 794,3697 741,3697"/>
			<polyline fill="none" stroke="#404040" stroke-width="12" stroke-dasharray="none" points="768,4032 768,4149"/>
			<polygon fill="#404040" stroke="none" points="768,4176 794,4129 741,4129"/>
			<polyline fill="none" stroke="#404040" stroke-width="12" stroke-dasharray="none" points="768,4368 768,4533"/>
			<polygon fill="#404040" stroke="none" points="768,4560 794,4513 741,4513"/>
			<g>
				<polyline fill="none" stroke="#404040" stroke-width="12" stroke-dasharray="12,24" points="768,528 1008,528"/>
				<g>
					<path fill="#FFFFFF" stroke="#404040" stroke-width="6" stroke-dasharray="12,12" d="M 1008,384 L 1008,672 L 2448,672 L 2448,384 Z"/>
					<text x="1728" y="412" fill="#303030" font-family="Arial" font-size="32pt" text-anchor="middle" direction="ltr">
						<tspan x="1728" dy="96" unicode-bidi="embed">I will just use an array to represent</tspan>
						<tspan x="1728" dy="96" unicode-bidi="embed"> the stack the stack.</tspan>
					</text>
				</g>
			</g>
			<g>
				<path fill="#FFFFD8" stroke="#A0A078" stroke-width="6" stroke-dasharray="none" d="M 192,816 L 192,1056 L 1344,1056 L 1344,816 Z"/>
				<polyline fill="none" stroke="#A0A078" stroke-width="6" stroke-dasharray="none" points="192,864 1344,864"/>
				<polyline fill="none" stroke="#A0A078" stroke-width="6" stroke-dasharray="none" points="240,816 240,1056"/>
				<text x="792" y="892" fill="#404018" font-family="Arial" font-size="32pt" text-anchor="middle" direction="ltr">
					<tspan x="792" dy="96" unicode-bidi="embed">String Array binStack[100]</tspan>
				</text>
			</g>
			<g>
				<path fill="#FFFFD8" stroke="#A0A078" stroke-width="6" stroke-dasharray="none" d="M 384,1200 L 384,1440 L 1152,1440 L 1152,1200 Z"/>
				<polyline fill="none" stroke="#A0A078" stroke-width="6" stroke-dasharray="none" points="384,1248 1152,1248"/>
				<polyline fill="none" stroke="#A0A078" stroke-width="6" stroke-dasharray="none" points="432,1200 432,1440"/>
				<text x="792" y="1276" fill="#404018" font-family="Arial" font-size="32pt" text-anchor="middle" direction="ltr">
					<tspan x="792" dy="96" unicode-bidi="embed">Boolean isDone</tspan>
				</text>
			</g>
			<g>
				<path fill="#FFFFD8" stroke="#A0A078" stroke-width="6" stroke-dasharray="none" d="M 432,1584 L 432,1776 L 1104,1776 L 1104,1584 Z"/>
				<text x="768" y="1612" fill="#404018" font-family="Arial" font-size="32pt" text-anchor="middle" direction="ltr">
					<tspan x="768" dy="96" unicode-bidi="embed">isDone = false</tspan>
				</text>
			</g>
			<g>
				<path fill="#FFFFD8" stroke="#A0A078" stroke-width="6" stroke-dasharray="none" d="M 336,1920 L 336,2160 L 1200,2160 L 1200,1920 Z"/>
				<polyline fill="none" stroke="#A0A078" stroke-width="6" stroke-dasharray="none" points="336,1968 1200,1968"/>
				<polyline fill="none" stroke="#A0A078" stroke-width="6" stroke-dasharray="none" points="384,1920 384,2160"/>
				<text x="792" y="1996" fill="#404018" font-family="Arial" font-size="32pt" text-anchor="middle" direction="ltr">
					<tspan x="792" dy="96" unicode-bidi="embed">String binaryNum</tspan>
				</text>
			</g>
			<g>
				<path fill="#FFFFD8" stroke="#A0A078" stroke-width="6" stroke-dasharray="none" d="M 384,2304 L 384,2544 L 1152,2544 L 1152,2304 Z"/>
				<polyline fill="none" stroke="#A0A078" stroke-width="6" stroke-dasharray="none" points="384,2352 1152,2352"/>
				<polyline fill="none" stroke="#A0A078" stroke-width="6" stroke-dasharray="none" points="432,2304 432,2544"/>
				<text x="792" y="2380" fill="#404018" font-family="Arial" font-size="32pt" text-anchor="middle" direction="ltr">
					<tspan x="792" dy="96" unicode-bidi="embed">Integer decimal</tspan>
				</text>
			</g>
			<g>
				<path fill="#FFFFD8" stroke="#A0A078" stroke-width="6" stroke-dasharray="none" d="M 480,2688 L 480,2880 L 1056,2880 L 1056,2688 Z"/>
				<text x="768" y="2716" fill="#404018" font-family="Arial" font-size="32pt" text-anchor="middle" direction="ltr">
					<tspan x="768" dy="96" unicode-bidi="embed">decimal = 0</tspan>
				</text>
			</g>
			<g>
				<path fill="#FFFFD8" stroke="#A0A078" stroke-width="6" stroke-dasharray="none" d="M 384,3024 L 384,3264 L 1152,3264 L 1152,3024 Z"/>
				<polyline fill="none" stroke="#A0A078" stroke-width="6" stroke-dasharray="none" points="384,3072 1152,3072"/>
				<polyline fill="none" stroke="#A0A078" stroke-width="6" stroke-dasharray="none" points="432,3024 432,3264"/>
				<text x="792" y="3100" fill="#404018" font-family="Arial" font-size="32pt" text-anchor="middle" direction="ltr">
					<tspan x="792" dy="96" unicode-bidi="embed">Integer exponent</tspan>
				</text>
			</g>
			<g>
				<path fill="#FFFFD8" stroke="#A0A078" stroke-width="6" stroke-dasharray="none" d="M 480,3408 L 480,3600 L 1056,3600 L 1056,3408 Z"/>
				<text x="768" y="3436" fill="#404018" font-family="Arial" font-size="32pt" text-anchor="middle" direction="ltr">
					<tspan x="768" dy="96" unicode-bidi="embed">exponent = 0</tspan>
				</text>
			</g>
			<g>
				<path fill="#D8FFD8" stroke="#78A078" stroke-width="6" stroke-dasharray="none" d="M 192,3744 L 48,4032 L 1344,4032 L 1488,3744 Z"/>
				<text x="768" y="3772" fill="#184018" font-family="Arial" font-size="32pt" text-anchor="middle" direction="ltr">
					<tspan x="768" dy="96" unicode-bidi="embed">Output &quot;Enter a binary</tspan>
					<tspan x="768" dy="96" unicode-bidi="embed"> number (enter -1 to quit): &quot;</tspan>
				</text>
			</g>
			<g>
				<path fill="#D0E8FF" stroke="#7088A0" stroke-width="6" stroke-dasharray="none" d="M 384,4176 L 288,4368 L 1152,4368 L 1248,4176 Z"/>
				<text x="768" y="4204" fill="#102840" font-family="Arial" font-size="32pt" text-anchor="middle" direction="ltr">
					<tspan x="768" dy="96" unicode-bidi="embed">Input binaryNum</tspan>
				</text>
			</g>
			<g>
				<polyline fill="none" stroke="#404040" stroke-width="12" stroke-dasharray="none" points="1152,4656 5952,4656 5952,4821"/>
				<polygon fill="#404040" stroke="none" points="5952,4848 5978,4801 5925,4801"/>
				<polyline fill="none" stroke="#404040" stroke-width="12" stroke-dasharray="none" points="5952,13440 5952,13584 864,13584 864,4778"/>
				<polygon fill="#404040" stroke="none" points="864,4752 837,4798 890,4798"/>
				<g>
					<polyline fill="none" stroke="#404040" stroke-width="12" stroke-dasharray="none" points="5952,12672 5952,12789"/>
					<polygon fill="#404040" stroke="none" points="5952,12816 5978,12769 5925,12769"/>
					<polyline fill="none" stroke="#404040" stroke-width="12" stroke-dasharray="none" points="5952,13104 5952,13221"/>
					<polygon fill="#404040" stroke="none" points="5952,13248 5978,13201 5925,13201"/>
					<g>
						<polyline fill="none" stroke="#404040" stroke-width="12" stroke-dasharray="none" points="6432,5136 6768,5136 6768,5493"/>
						<polygon fill="#404040" stroke="none" points="6768,5520 6794,5473 6741,5473"/>
						<polyline fill="none" stroke="#404040" stroke-width="12" stroke-dasharray="none" points="6768,5712 6768,12624 6026,12624"/>
						<polygon fill="#404040" stroke="none" points="6000,12624 6046,12650 6046,12597"/>
						<polyline fill="none" stroke="#404040" stroke-width="12" stroke-dasharray="none" points="5472,5136 4272,5136 4272,5493"/>
						<polygon fill="#404040" stroke="none" points="4272,5520 4298,5473 4245,5473"/>
						<polyline fill="none" stroke="#404040" stroke-width="12" stroke-dasharray="none" points="4272,12432 4272,12624 5877,12624"/>
						<polygon fill="#404040" stroke="none" points="5904,12624 5857,12597 5857,12650"/>
						<g>
							<path fill="#FFD8D8" stroke="#A07878" stroke-width="6" stroke-dasharray="none" d="M 5952,4848 L 5424,5136 L 5952,5424 L 6480,5136 Z"/>
							<text x="5952" y="5068" fill="#401818" font-family="Arial" font-size="32pt" text-anchor="middle" direction="ltr">
								<tspan x="5952" dy="96" unicode-bidi="embed">binaryNum == &quot;-1&quot;</tspan>
							</text>
						</g>
						<g>
							<path fill="#FFFFD8" stroke="#A0A078" stroke-width="6" stroke-dasharray="none" d="M 6432,5520 L 6432,5712 L 7104,5712 L 7104,5520 Z"/>
							<text x="6768" y="5548" fill="#404018" font-family="Arial" font-size="32pt" text-anchor="middle" direction="ltr">
								<tspan x="6768" dy="96" unicode-bidi="embed">isDone = true</tspan>
							</text>
						</g>
						<g>
							<polyline fill="none" stroke="#404040" stroke-width="12" stroke-dasharray="none" points="4800,5808 5136,5808 5136,6165"/>
							<polygon fill="#404040" stroke="none" points="5136,6192 5162,6145 5109,6145"/>
							<polyline fill="none" stroke="#404040" stroke-width="12" stroke-dasharray="none" points="5136,6576 5136,12384 4346,12384"/>
							<polygon fill="#404040" stroke="none" points="4320,12384 4366,12410 4366,12357"/>
							<polyline fill="none" stroke="#404040" stroke-width="12" stroke-dasharray="none" points="3744,5808 1872,5808 1872,6165"/>
							<polygon fill="#404040" stroke="none" points="1872,6192 1898,6145 1845,6145"/>
							<polyline fill="none" stroke="#404040" stroke-width="12" stroke-dasharray="none" points="1872,12192 1872,12384 4197,12384"/>
							<polygon fill="#404040" stroke="none" points="4224,12384 4177,12357 4177,12410"/>
							<g>
								<path fill="#FFD8D8" stroke="#A07878" stroke-width="6" stroke-dasharray="none" d="M 4272,5520 L 3696,5808 L 4272,6096 L 4848,5808 Z"/>
								<text x="4272" y="5692" fill="#401818" font-family="Arial" font-size="32pt" text-anchor="middle" direction="ltr">
									<tspan x="4272" dy="96" unicode-bidi="embed">not isValidBinary</tspan>
									<tspan x="4272" dy="96" unicode-bidi="embed">(binaryNum)</tspan>
								</text>
							</g>
							<g>
								<path fill="#D8FFD8" stroke="#78A078" stroke-width="6" stroke-dasharray="none" d="M 4608,6192 L 4416,6576 L 5664,6576 L 5856,6192 Z"/>
								<text x="5136" y="6220" fill="#184018" font-family="Arial" font-size="32pt" text-anchor="middle" direction="ltr">
									<tspan x="5136" dy="96" unicode-bidi="embed">Output &quot;Invalid binary</tspan>
									<tspan x="5136" dy="96" unicode-bidi="embed"> number. Enter 1s and 0s</tspan>
									<tspan x="5136" dy="96" unicode-bidi="embed"> only.&quot;</tspan>
								</text>
							</g>
							<g>
								<polyline fill="none" stroke="#404040" stroke-width="12" stroke-dasharray="none" points="1872,6432 1872,6549"/>
								<polygon fill="#404040" stroke="none" points="1872,6576 1898,6529 1845,6529"/>
								<polyline fill="none" stroke="#404040" stroke-width="12" stroke-dasharray="none" points="1872,6768 1872,6885"/>
								<polygon fill="#404040" stroke="none" points="1872,6912 1898,6865 1845,6865"/>
								<polyline fill="none" stroke="#404040" stroke-width="12" stroke-dasharray="none" points="1872,7152 1872,7317"/>
								<polygon fill="#404040" stroke="none" points="1872,7344 1898,7297 1845,7297"/>
								<polyline fill="none" stroke="#404040" stroke-width="12" stroke-dasharray="none" points="1872,7536 1872,8229"/>
								<polygon fill="#404040" stroke="none" points="1872,8256 1898,8209 1845,8209"/>
								<polyline fill="none" stroke="#404040" stroke-width="12" stroke-dasharray="none" points="1872,8496 1872,8613"/>
								<polygon fill="#404040" stroke="none" points="1872,8640 1898,8593 1845,8593"/>
								<polyline fill="none" stroke="#404040" stroke-width="12" stroke-dasharray="none" points="1872,8880 1872,9045"/>
								<polygon fill="#404040" stroke="none" points="1872,9072 1898,9025 1845,9025"/>
								<polyline fill="none" stroke="#404040" stroke-width="12" stroke-dasharray="none" points="1872,9264 1872,11877"/>
								<polygon fill="#404040" stroke="none" points="1872,11904 1898,11857 1845,11857"/>
								<g>
									<path fill="#FFFFD8" stroke="#A0A078" stroke-width="6" stroke-dasharray="none" d="M 1584,6192 L 1584,6432 L 2160,6432 L 2160,6192 Z"/>
									<polyline fill="none" stroke="#A0A078" stroke-width="6" stroke-dasharray="none" points="1584,6240 2160,6240"/>
									<polyline fill="none" stroke="#A0A078" stroke-width="6" stroke-dasharray="none" points="1632,6192 1632,6432"/>
									<text x="1896" y="6268" fill="#404018" font-family="Arial" font-size="32pt" text-anchor="middle" direction="ltr">
										<tspan x="1896" dy="96" unicode-bidi="embed">Integer size</tspan>
									</text>
								</g>
								<g>
									<path fill="#FFFFD8" stroke="#A0A078" stroke-width="6" stroke-dasharray="none" d="M 1344,6576 L 1344,6768 L 2400,6768 L 2400,6576 Z"/>
									<text x="1872" y="6604" fill="#404018" font-family="Arial" font-size="32pt" text-anchor="middle" direction="ltr">
										<tspan x="1872" dy="96" unicode-bidi="embed">size = Len(binaryNum)-1</tspan>
									</text>
								</g>
								<g>
									<path fill="#FFFFD8" stroke="#A0A078" stroke-width="6" stroke-dasharray="none" d="M 1584,6912 L 1584,7152 L 2160,7152 L 2160,6912 Z"/>
									<polyline fill="none" stroke="#A0A078" stroke-width="6" stroke-dasharray="none" points="1584,6960 2160,6960"/>
									<polyline fill="none" stroke="#A0A078" stroke-width="6" stroke-dasharray="none" points="1632,6912 1632,7152"/>
									<text x="1896" y="6988" fill="#404018" font-family="Arial" font-size="32pt" text-anchor="middle" direction="ltr">
										<tspan x="1896" dy="96" unicode-bidi="embed">Integer i</tspan>
									</text>
								</g>
								<g>
									<polyline fill="none" stroke="#404040" stroke-width="12" stroke-dasharray="none" points="2256,7440 2544,7440 2544,7605"/>
									<polygon fill="#404040" stroke="none" points="2544,7632 2570,7585 2517,7585"/>
									<polyline fill="none" stroke="#404040" stroke-width="12" stroke-dasharray="none" points="2544,7920 2544,8064 1968,8064 1968,7562"/>
									<polygon fill="#404040" stroke="none" points="1968,7536 1941,7582 1994,7582"/>
									<g>
										<path fill="#FFFFD8" stroke="#A0A078" stroke-width="6" stroke-dasharray="none" d="M 2160,7632 L 2160,7920 L 2928,7920 L 2928,7632 Z"/>
										<text x="2544" y="7660" fill="#404018" font-family="Arial" font-size="32pt" text-anchor="middle" direction="ltr">
											<tspan x="2544" dy="96" unicode-bidi="embed">binStack[i] = Char</tspan>
											<tspan x="2544" dy="96" unicode-bidi="embed">(binaryNum, i)</tspan>
										</text>
									</g>
									<g>
										<path fill="#FFE0B0" stroke="#A08050" stroke-width="6" stroke-dasharray="none" d="M 1584,7344 L 1488,7440 L 1584,7536 L 2160,7536 L 2256,7440 L 2160,7344 Z"/>
										<text x="1872" y="7372" fill="#402000" font-family="Arial" font-size="32pt" text-anchor="middle" direction="ltr">
											<tspan x="1872" dy="96" unicode-bidi="embed">i = 0 to size</tspan>
										</text>
									</g>
									<text x="2400" y="7276" fill="#404040" font-family="Arial" font-size="32pt" text-anchor="middle" direction="ltr">
										<tspan x="2400" dy="96" unicode-bidi="embed">Next</tspan>
									</text>
									<text x="1704" y="7564" fill="#404040" font-family="Arial" font-size="32pt" text-anchor="middle" direction="ltr">
										<tspan x="1704" dy="96" unicode-bidi="embed">Done</tspan>
									</text>
								</g>
								<g>
									<path fill="#FFFFD8" stroke="#A0A078" stroke-width="6" stroke-dasharray="none" d="M 1536,8256 L 1536,8496 L 2208,8496 L 2208,8256 Z"/>
									<polyline fill="none" stroke="#A0A078" stroke-width="6" stroke-dasharray="none" points="1536,8304 2208,8304"/>
									<polyline fill="none" stroke="#A0A078" stroke-width="6" stroke-dasharray="none" points="1584,8256 1584,8496"/>
									<text x="1896" y="8332" fill="#404018" font-family="Arial" font-size="32pt" text-anchor="middle" direction="ltr">
										<tspan x="1896" dy="96" unicode-bidi="embed">String symbol</tspan>
									</text>
								</g>
								<g>
									<path fill="#FFFFD8" stroke="#A0A078" stroke-width="6" stroke-dasharray="none" d="M 1440,8640 L 1440,8880 L 2304,8880 L 2304,8640 Z"/>
									<polyline fill="none" stroke="#A0A078" stroke-width="6" stroke-dasharray="none" points="1440,8688 2304,8688"/>
									<polyline fill="none" stroke="#A0A078" stroke-width="6" stroke-dasharray="none" points="1488,8640 1488,8880"/>
									<text x="1896" y="8716" fill="#404018" font-family="Arial" font-size="32pt" text-anchor="middle" direction="ltr">
										<tspan x="1896" dy="96" unicode-bidi="embed">Integer intSymbol</tspan>
									</text>
								</g>
								<g>
									<polyline fill="none" stroke="#404040" stroke-width="12" stroke-dasharray="none" points="2448,9168 2976,9168 2976,9333"/>
									<polygon fill="#404040" stroke="none" points="2976,9360 3002,9313 2949,9313"/>
									<polyline fill="none" stroke="#404040" stroke-width="12" stroke-dasharray="none" points="2976,11568 2976,11712 1968,11712 1968,9290"/>
									<polygon fill="#404040" stroke="none" points="1968,9264 1941,9310 1994,9310"/>
									<g>
										<polyline fill="none" stroke="#404040" stroke-width="12" stroke-dasharray="none" points="2976,9552 2976,9669"/>
										<polygon fill="#404040" stroke="none" points="2976,9696 3002,9649 2949,9649"/>
										<polyline fill="none" stroke="#404040" stroke-width="12" stroke-dasharray="none" points="2976,11232 2976,11349"/>
										<polygon fill="#404040" stroke="none" points="2976,11376 3002,11329 2949,11329"/>
										<g>
											<path fill="#FFFFD8" stroke="#A0A078" stroke-width="6" stroke-dasharray="none" d="M 2544,9360 L 2544,9552 L 3408,9552 L 3408,9360 Z"/>
											<text x="2976" y="9388" fill="#404018" font-family="Arial" font-size="32pt" text-anchor="middle" direction="ltr">
												<tspan x="2976" dy="96" unicode-bidi="embed">symbol = binStack[i]</tspan>
											</text>
										</g>
										<g>
											<polyline fill="none" stroke="#404040" stroke-width="12" stroke-dasharray="none" points="3360,9936 3696,9936 3696,10245"/>
											<polygon fill="#404040" stroke="none" points="3696,10272 3722,10225 3669,10225"/>
											<polyline fill="none" stroke="#404040" stroke-width="12" stroke-dasharray="none" points="3696,10992 3696,11184 3050,11184"/>
											<polygon fill="#404040" stroke="none" points="3024,11184 3070,11210 3070,11157"/>
											<polyline fill="none" stroke="#404040" stroke-width="12" stroke-dasharray="none" points="2592,9936 2208,9936 2208,11184 2901,11184"/>
											<polygon fill="#404040" stroke="none" points="2928,11184 2881,11157 2881,11210"/>
											<g>
												<path fill="#FFD8D8" stroke="#A07878" stroke-width="6" stroke-dasharray="none" d="M 2976,9696 L 2544,9936 L 2976,10176 L 3408,9936 Z"/>
												<text x="2976" y="9868" fill="#401818" font-family="Arial" font-size="32pt" text-anchor="middle" direction="ltr">
													<tspan x="2976" dy="96" unicode-bidi="embed">symbol == &quot;-1&quot;</tspan>
												</text>
											</g>
											<g>
												<polyline fill="none" stroke="#404040" stroke-width="12" stroke-dasharray="none" points="3696,10560 3696,10677"/>
												<polygon fill="#404040" stroke="none" points="3696,10704 3722,10657 3669,10657"/>
												<g>
													<path fill="#FFFFD8" stroke="#A0A078" stroke-width="6" stroke-dasharray="none" d="M 3216,10272 L 3216,10560 L 4176,10560 L 4176,10272 Z"/>
													<text x="3696" y="10300" fill="#404018" font-family="Arial" font-size="32pt" text-anchor="middle" direction="ltr">
														<tspan x="3696" dy="96" unicode-bidi="embed">intSymbol = ToInteger</tspan>
														<tspan x="3696" dy="96" unicode-bidi="embed">(symbol)</tspan>
													</text>
												</g>
												<g>
													<path fill="#FFFFD8" stroke="#A0A078" stroke-width="6" stroke-dasharray="none" d="M 3216,10704 L 3216,10992 L 4176,10992 L 4176,10704 Z"/>
													<text x="3696" y="10732" fill="#404018" font-family="Arial" font-size="32pt" text-anchor="middle" direction="ltr">
														<tspan x="3696" dy="96" unicode-bidi="embed">decimal = decimal + 2^</tspan>
														<tspan x="3696" dy="96" unicode-bidi="embed">exponent</tspan>
													</text>
												</g>
											</g>
											<g>
											</g>
											<ellipse cx="2976" cy="11184" rx="48" ry="48" fill="#FFD8D8" stroke="#A07878" stroke-width="6"/>
											<text x="3552" y="9772" fill="#404040" font-family="Arial" font-size="32pt" text-anchor="middle" direction="ltr">
												<tspan x="3552" dy="96" unicode-bidi="embed">True</tspan>
											</text>
											<text x="2376" y="9772" fill="#404040" font-family="Arial" font-size="32pt" text-anchor="middle" direction="ltr">
												<tspan x="2376" dy="96" unicode-bidi="embed">False</tspan>
											</text>
										</g>
										<g>
											<path fill="#FFFFD8" stroke="#A0A078" stroke-width="6" stroke-dasharray="none" d="M 2448,11376 L 2448,11568 L 3504,11568 L 3504,11376 Z"/>
											<text x="2976" y="11404" fill="#404018" font-family="Arial" font-size="32pt" text-anchor="middle" direction="ltr">
												<tspan x="2976" dy="96" unicode-bidi="embed">exponent = exponent + 1</tspan>
											</text>
										</g>
									</g>
									<g>
										<path fill="#FFE0B0" stroke="#A08050" stroke-width="6" stroke-dasharray="none" d="M 1392,9072 L 1296,9168 L 1392,9264 L 2352,9264 L 2448,9168 L 2352,9072 Z"/>
										<text x="1872" y="9100" fill="#402000" font-family="Arial" font-size="32pt" text-anchor="middle" direction="ltr">
											<tspan x="1872" dy="96" unicode-bidi="embed">i = size to 0 decreasing</tspan>
										</text>
									</g>
									<text x="2592" y="9004" fill="#404040" font-family="Arial" font-size="32pt" text-anchor="middle" direction="ltr">
										<tspan x="2592" dy="96" unicode-bidi="embed">Next</tspan>
									</text>
									<text x="1704" y="9292" fill="#404040" font-family="Arial" font-size="32pt" text-anchor="middle" direction="ltr">
										<tspan x="1704" dy="96" unicode-bidi="embed">Done</tspan>
									</text>
								</g>
								<g>
									<path fill="#D8FFD8" stroke="#78A078" stroke-width="6" stroke-dasharray="none" d="M 1296,11904 L 1152,12192 L 2448,12192 L 2592,11904 Z"/>
									<text x="1872" y="11932" fill="#184018" font-family="Arial" font-size="32pt" text-anchor="middle" direction="ltr">
										<tspan x="1872" dy="96" unicode-bidi="embed">Output binaryNum &amp; &quot; = &quot; &amp;</tspan>
										<tspan x="1872" dy="96" unicode-bidi="embed"> decimal</tspan>
									</text>
								</g>
							</g>
							<ellipse cx="4272" cy="12384" rx="48" ry="48" fill="#FFD8D8" stroke="#A07878" stroke-width="6"/>
							<text x="4992" y="5644" fill="#404040" font-family="Arial" font-size="32pt" text-anchor="middle" direction="ltr">
								<tspan x="4992" dy="96" unicode-bidi="embed">True</tspan>
							</text>
							<text x="3528" y="5644" fill="#404040" font-family="Arial" font-size="32pt" text-anchor="middle" direction="ltr">
								<tspan x="3528" dy="96" unicode-bidi="embed">False</tspan>
							</text>
						</g>
						<ellipse cx="5952" cy="12624" rx="48" ry="48" fill="#FFD8D8" stroke="#A07878" stroke-width="6"/>
						<text x="6624" y="4972" fill="#404040" font-family="Arial" font-size="32pt" text-anchor="middle" direction="ltr">
							<tspan x="6624" dy="96" unicode-bidi="embed">True</tspan>
						</text>
						<text x="5256" y="4972" fill="#404040" font-family="Arial" font-size="32pt" text-anchor="middle" direction="ltr">
							<tspan x="5256" dy="96" unicode-bidi="embed">False</tspan>
						</text>
					</g>
					<g>
						<path fill="#D8FFD8" stroke="#78A078" stroke-width="6" stroke-dasharray="none" d="M 5376,12816 L 5232,13104 L 6528,13104 L 6672,12816 Z"/>
						<text x="5952" y="12844" fill="#184018" font-family="Arial" font-size="32pt" text-anchor="middle" direction="ltr">
							<tspan x="5952" dy="96" unicode-bidi="embed">Output &quot;Enter a binary</tspan>
							<tspan x="5952" dy="96" unicode-bidi="embed"> number (enter -1 to quit): &quot;</tspan>
						</text>
					</g>
					<g>
						<path fill="#D0E8FF" stroke="#7088A0" stroke-width="6" stroke-dasharray="none" d="M 5568,13248 L 5472,13440 L 6336,13440 L 6432,13248 Z"/>
						<text x="5952" y="13276" fill="#102840" font-family="Arial" font-size="32pt" text-anchor="middle" direction="ltr">
							<tspan x="5952" dy="96" unicode-bidi="embed">Input binaryNum</tspan>
						</text>
					</g>
				</g>
				<g>
					<path fill="#FFE0B0" stroke="#A08050" stroke-width="6" stroke-dasharray="none" d="M 480,4560 L 384,4656 L 480,4752 L 1056,4752 L 1152,4656 L 1056,4560 Z"/>
					<text x="768" y="4588" fill="#402000" font-family="Arial" font-size="32pt" text-anchor="middle" direction="ltr">
						<tspan x="768" dy="96" unicode-bidi="embed">not isDone</tspan>
					</text>
				</g>
				<text x="1296" y="4492" fill="#404040" font-family="Arial" font-size="32pt" text-anchor="middle" direction="ltr">
					<tspan x="1296" dy="96" unicode-bidi="embed">True</tspan>
				</text>
				<text x="600" y="4780" fill="#404040" font-family="Arial" font-size="32pt" text-anchor="middle" direction="ltr">
					<tspan x="600" dy="96" unicode-bidi="embed">False</tspan>
				</text>
			</g>
		</g>
	</g>
</svg>
