<?xml version="1.0" encoding="UTF-8" standalone="no"?>
<!-- Created by Flowgorithm 4.5.0 (http://flowgorithm.org) -->

<svg xmlns:svg="http://www.w3.org/2000/svg" xmlns="http://www.w3.org/2000/svg" version="1.1" width="3408" height="4512">
	<g>
		<polyline fill="none" stroke="#404040" stroke-width="12" stroke-dasharray="none" points="576,336 576,453"/>
		<polygon fill="#404040" stroke="none" points="576,480 602,433 549,433"/>
		<polyline fill="none" stroke="#404040" stroke-width="12" stroke-dasharray="none" points="576,2544 576,4245"/>
		<polygon fill="#404040" stroke="none" points="576,4272 602,4225 549,4225"/>
		<g>
			<path fill="#F0E0FF" stroke="#9070A0" stroke-width="6" stroke-dasharray="none" d="M 288,48 A 144 144, 0, 0 0, 288 336 L 864,336 A 144 144, 0, 0 0, 864 48 Z"/>
			<text x="576" y="76" fill="#301040" font-family="Arial" font-size="32pt" text-anchor="middle" direction="ltr">
				<tspan x="576" dy="96" unicode-bidi="embed">isValidBinary</tspan>
				<tspan x="576" dy="96" unicode-bidi="embed">(String binary)</tspan>
			</text>
		</g>
		<g>
			<path fill="#F0E0FF" stroke="#9070A0" stroke-width="6" stroke-dasharray="none" d="M 144,4272 A 96 96, 0, 0 0, 144 4464 L 1008,4464 A 96 96, 0, 0 0, 1008 4272 Z"/>
			<text x="576" y="4300" fill="#301040" font-family="Arial" font-size="32pt" text-anchor="middle" direction="ltr">
				<tspan x="576" dy="96" unicode-bidi="embed">Return Boolean result</tspan>
			</text>
		</g>
		<g>
			<polyline fill="none" stroke="#404040" stroke-width="12" stroke-dasharray="none" points="576,720 576,837"/>
			<polygon fill="#404040" stroke="none" points="576,864 602,817 549,817"/>
			<polyline fill="none" stroke="#404040" stroke-width="12" stroke-dasharray="none" points="576,1056 576,1173"/>
			<polygon fill="#404040" stroke="none" points="576,1200 602,1153 549,1153"/>
			<polyline fill="none" stroke="#404040" stroke-width="12" stroke-dasharray="none" points="576,1440 576,1557"/>
			<polygon fill="#404040" stroke="none" points="576,1584 602,1537 549,1537"/>
			<polyline fill="none" stroke="#404040" stroke-width="12" stroke-dasharray="none" points="576,1776 576,1893"/>
			<polygon fill="#404040" stroke="none" points="576,1920 602,1873 549,1873"/>
			<polyline fill="none" stroke="#404040" stroke-width="12" stroke-dasharray="none" points="576,2160 576,2325"/>
			<polygon fill="#404040" stroke="none" points="576,2352 602,2305 549,2305"/>
			<g>
				<path fill="#FFFFD8" stroke="#A0A078" stroke-width="6" stroke-dasharray="none" d="M 192,480 L 192,720 L 960,720 L 960,480 Z"/>
				<polyline fill="none" stroke="#A0A078" stroke-width="6" stroke-dasharray="none" points="192,528 960,528"/>
				<polyline fill="none" stroke="#A0A078" stroke-width="6" stroke-dasharray="none" points="240,480 240,720"/>
				<text x="600" y="556" fill="#404018" font-family="Arial" font-size="32pt" text-anchor="middle" direction="ltr">
					<tspan x="600" dy="96" unicode-bidi="embed">Boolean result</tspan>
				</text>
			</g>
			<g>
				<path fill="#FFFFD8" stroke="#A0A078" stroke-width="6" stroke-dasharray="none" d="M 288,864 L 288,1056 L 864,1056 L 864,864 Z"/>
				<text x="576" y="892" fill="#404018" font-family="Arial" font-size="32pt" text-anchor="middle" direction="ltr">
					<tspan x="576" dy="96" unicode-bidi="embed">result = true</tspan>
				</text>
			</g>
			<g>
				<path fill="#FFFFD8" stroke="#A0A078" stroke-width="6" stroke-dasharray="none" d="M 288,1200 L 288,1440 L 864,1440 L 864,1200 Z"/>
				<polyline fill="none" stroke="#A0A078" stroke-width="6" stroke-dasharray="none" points="288,1248 864,1248"/>
				<polyline fill="none" stroke="#A0A078" stroke-width="6" stroke-dasharray="none" points="336,1200 336,1440"/>
				<text x="600" y="1276" fill="#404018" font-family="Arial" font-size="32pt" text-anchor="middle" direction="ltr">
					<tspan x="600" dy="96" unicode-bidi="embed">Integer size</tspan>
				</text>
			</g>
			<g>
				<path fill="#FFFFD8" stroke="#A0A078" stroke-width="6" stroke-dasharray="none" d="M 96,1584 L 96,1776 L 1056,1776 L 1056,1584 Z"/>
				<text x="576" y="1612" fill="#404018" font-family="Arial" font-size="32pt" text-anchor="middle" direction="ltr">
					<tspan x="576" dy="96" unicode-bidi="embed">size = Len(binary) - 1</tspan>
				</text>
			</g>
			<g>
				<path fill="#FFFFD8" stroke="#A0A078" stroke-width="6" stroke-dasharray="none" d="M 240,1920 L 240,2160 L 912,2160 L 912,1920 Z"/>
				<polyline fill="none" stroke="#A0A078" stroke-width="6" stroke-dasharray="none" points="240,1968 912,1968"/>
				<polyline fill="none" stroke="#A0A078" stroke-width="6" stroke-dasharray="none" points="288,1920 288,2160"/>
				<text x="600" y="1996" fill="#404018" font-family="Arial" font-size="32pt" text-anchor="middle" direction="ltr">
					<tspan x="600" dy="96" unicode-bidi="embed">Integer digit</tspan>
				</text>
			</g>
			<g>
				<polyline fill="none" stroke="#404040" stroke-width="12" stroke-dasharray="none" points="1008,2448 2016,2448 2016,2613"/>
				<polygon fill="#404040" stroke="none" points="2016,2640 2042,2593 1989,2593"/>
				<polyline fill="none" stroke="#404040" stroke-width="12" stroke-dasharray="none" points="2016,3936 2016,4080 672,4080 672,2570"/>
				<polygon fill="#404040" stroke="none" points="672,2544 645,2590 698,2590"/>
				<g>
					<polyline fill="none" stroke="#404040" stroke-width="12" stroke-dasharray="none" points="2736,3024 3072,3024 3072,3477"/>
					<polygon fill="#404040" stroke="none" points="3072,3504 3098,3457 3045,3457"/>
					<polyline fill="none" stroke="#404040" stroke-width="12" stroke-dasharray="none" points="3072,3696 3072,3888 2090,3888"/>
					<polygon fill="#404040" stroke="none" points="2064,3888 2110,3914 2110,3861"/>
					<polyline fill="none" stroke="#404040" stroke-width="12" stroke-dasharray="none" points="1296,3024 912,3024 912,3888 1941,3888"/>
					<polygon fill="#404040" stroke="none" points="1968,3888 1921,3861 1921,3914"/>
					<g>
						<path fill="#FFD8D8" stroke="#A07878" stroke-width="6" stroke-dasharray="none" d="M 2016,2640 L 1248,3024 L 2016,3408 L 2784,3024 Z"/>
						<text x="2016" y="2908" fill="#401818" font-family="Arial" font-size="32pt" text-anchor="middle" direction="ltr">
							<tspan x="2016" dy="96" unicode-bidi="embed">Char(binary, digit) != &quot;1&quot; &amp;&amp;</tspan>
							<tspan x="2016" dy="96" unicode-bidi="embed"> Char(binary, digit) != &quot;0&quot;</tspan>
						</text>
					</g>
					<g>
						<path fill="#FFFFD8" stroke="#A0A078" stroke-width="6" stroke-dasharray="none" d="M 2784,3504 L 2784,3696 L 3360,3696 L 3360,3504 Z"/>
						<text x="3072" y="3532" fill="#404018" font-family="Arial" font-size="32pt" text-anchor="middle" direction="ltr">
							<tspan x="3072" dy="96" unicode-bidi="embed">result = false</tspan>
						</text>
					</g>
					<g>
					</g>
					<ellipse cx="2016" cy="3888" rx="48" ry="48" fill="#FFD8D8" stroke="#A07878" stroke-width="6"/>
					<text x="2928" y="2860" fill="#404040" font-family="Arial" font-size="32pt" text-anchor="middle" direction="ltr">
						<tspan x="2928" dy="96" unicode-bidi="embed">True</tspan>
					</text>
					<text x="1080" y="2860" fill="#404040" font-family="Arial" font-size="32pt" text-anchor="middle" direction="ltr">
						<tspan x="1080" dy="96" unicode-bidi="embed">False</tspan>
					</text>
				</g>
				<g>
					<path fill="#FFE0B0" stroke="#A08050" stroke-width="6" stroke-dasharray="none" d="M 240,2352 L 144,2448 L 240,2544 L 912,2544 L 1008,2448 L 912,2352 Z"/>
					<text x="576" y="2380" fill="#402000" font-family="Arial" font-size="32pt" text-anchor="middle" direction="ltr">
						<tspan x="576" dy="96" unicode-bidi="embed">digit = 0 to size</tspan>
					</text>
				</g>
				<text x="1152" y="2284" fill="#404040" font-family="Arial" font-size="32pt" text-anchor="middle" direction="ltr">
					<tspan x="1152" dy="96" unicode-bidi="embed">Next</tspan>
				</text>
				<text x="408" y="2572" fill="#404040" font-family="Arial" font-size="32pt" text-anchor="middle" direction="ltr">
					<tspan x="408" dy="96" unicode-bidi="embed">Done</tspan>
				</text>
			</g>
		</g>
	</g>
</svg>
