<?xml version="1.0" encoding="UTF-8" standalone="no"?>
<!-- Created by Flowgorithm 4.5.0 (http://flowgorithm.org) -->

<svg xmlns:svg="http://www.w3.org/2000/svg" xmlns="http://www.w3.org/2000/svg" version="1.1" width="1900" height="2150">
	<g>
		<polyline fill="none" stroke="#404040" stroke-width="6" stroke-dasharray="none" points="375,175 375,236"/>
		<polygon fill="#404040" stroke="none" points="375,250 388,225 361,225"/>
		<polyline fill="none" stroke="#404040" stroke-width="6" stroke-dasharray="none" points="375,1875 375,2011"/>
		<polygon fill="#404040" stroke="none" points="375,2025 388,2000 361,2000"/>
		<g>
			<path fill="#F0E0FF" stroke="#9070A0" stroke-width="3" stroke-dasharray="none" d="M 175,25 A 75 75, 0, 0 0, 175 175 L 575,175 A 75 75, 0, 0 0, 575 25 Z"/>
			<text x="375" y="40" fill="#301040" font-family="Arial" font-size="32pt" text-anchor="middle" direction="ltr">
				<tspan x="375" dy="50" unicode-bidi="embed">readIntChoice</tspan>
				<tspan x="375" dy="50" unicode-bidi="embed">(Integer upperBound)</tspan>
			</text>
		</g>
		<g>
			<path fill="#F0E0FF" stroke="#9070A0" stroke-width="3" stroke-dasharray="none" d="M 175,2025 A 50 50, 0, 0 0, 175 2125 L 575,2125 A 50 50, 0, 0 0, 575 2025 Z"/>
			<text x="375" y="2040" fill="#301040" font-family="Arial" font-size="32pt" text-anchor="middle" direction="ltr">
				<tspan x="375" dy="50" unicode-bidi="embed">Return Integer choice</tspan>
			</text>
		</g>
		<g>
			<polyline fill="none" stroke="#404040" stroke-width="6" stroke-dasharray="none" points="375,375 375,436"/>
			<polygon fill="#404040" stroke="none" points="375,450 388,425 361,425"/>
			<polyline fill="none" stroke="#404040" stroke-width="6" stroke-dasharray="none" points="375,550 375,611"/>
			<polygon fill="#404040" stroke="none" points="375,625 388,600 361,600"/>
			<g>
				<path fill="#FFFFD8" stroke="#A0A078" stroke-width="3" stroke-dasharray="none" d="M 200,250 L 200,375 L 550,375 L 550,250 Z"/>
				<polyline fill="none" stroke="#A0A078" stroke-width="3" stroke-dasharray="none" points="200,275 550,275"/>
				<polyline fill="none" stroke="#A0A078" stroke-width="3" stroke-dasharray="none" points="225,250 225,375"/>
				<text x="387" y="290" fill="#404018" font-family="Arial" font-size="32pt" text-anchor="middle" direction="ltr">
					<tspan x="387" dy="50" unicode-bidi="embed">Integer choice</tspan>
				</text>
			</g>
			<g>
				<path fill="#FFFFD8" stroke="#A0A078" stroke-width="3" stroke-dasharray="none" d="M 225,450 L 225,550 L 525,550 L 525,450 Z"/>
				<text x="375" y="465" fill="#404018" font-family="Arial" font-size="32pt" text-anchor="middle" direction="ltr">
					<tspan x="375" dy="50" unicode-bidi="embed">choice = 0</tspan>
				</text>
			</g>
			<g>
				<polyline fill="none" stroke="#404040" stroke-width="6" stroke-dasharray="none" points="400,650 1025,650 1025,736"/>
				<polygon fill="#404040" stroke="none" points="1025,750 1038,725 1011,725"/>
				<polyline fill="none" stroke="#404040" stroke-width="6" stroke-dasharray="none" points="1025,1650 1025,1800 738,1800"/>
				<polygon fill="#404040" stroke="none" points="725,1800 749,1813 749,1786"/>
				<polyline fill="none" stroke="#404040" stroke-width="6" stroke-dasharray="none" points="375,1725 375,688"/>
				<polygon fill="#404040" stroke="none" points="375,675 361,699 388,699"/>
				<text x="300" y="1640" fill="#404040" font-family="Arial" font-size="32pt" text-anchor="middle" direction="ltr">
					<tspan x="300" dy="50" unicode-bidi="embed">True</tspan>
				</text>
				<text x="300" y="1890" fill="#404040" font-family="Arial" font-size="32pt" text-anchor="middle" direction="ltr">
					<tspan x="300" dy="50" unicode-bidi="embed">False</tspan>
				</text>
				<g>
					<polyline fill="none" stroke="#404040" stroke-width="6" stroke-dasharray="none" points="1025,850 1025,911"/>
					<polygon fill="#404040" stroke="none" points="1025,925 1038,900 1011,900"/>
					<g>
						<path fill="#D0E8FF" stroke="#7088A0" stroke-width="3" stroke-dasharray="none" d="M 875,750 L 825,850 L 1175,850 L 1225,750 Z"/>
						<text x="1025" y="765" fill="#102840" font-family="Arial" font-size="32pt" text-anchor="middle" direction="ltr">
							<tspan x="1025" dy="50" unicode-bidi="embed">Input choice</tspan>
						</text>
					</g>
					<g>
						<polyline fill="none" stroke="#404040" stroke-width="6" stroke-dasharray="none" points="1375,1125 1550,1125 1550,1361"/>
						<polygon fill="#404040" stroke="none" points="1550,1375 1563,1350 1536,1350"/>
						<polyline fill="none" stroke="#404040" stroke-width="6" stroke-dasharray="none" points="1550,1525 1550,1625 1063,1625"/>
						<polygon fill="#404040" stroke="none" points="1050,1625 1074,1638 1074,1611"/>
						<polyline fill="none" stroke="#404040" stroke-width="6" stroke-dasharray="none" points="675,1125 500,1125 500,1625 986,1625"/>
						<polygon fill="#404040" stroke="none" points="1000,1625 975,1611 975,1638"/>
						<g>
							<path fill="#FFD8D8" stroke="#A07878" stroke-width="3" stroke-dasharray="none" d="M 1025,925 L 650,1125 L 1025,1325 L 1400,1125 Z"/>
							<text x="1025" y="1065" fill="#401818" font-family="Arial" font-size="32pt" text-anchor="middle" direction="ltr">
								<tspan x="1025" dy="50" unicode-bidi="embed">(choice &lt; 1 || choice &gt;</tspan>
								<tspan x="1025" dy="50" unicode-bidi="embed"> upperBound) &amp;&amp; choice != -1</tspan>
							</text>
						</g>
						<g>
							<path fill="#D8FFD8" stroke="#78A078" stroke-width="3" stroke-dasharray="none" d="M 1300,1375 L 1225,1525 L 1800,1525 L 1875,1375 Z"/>
							<text x="1550" y="1390" fill="#184018" font-family="Arial" font-size="32pt" text-anchor="middle" direction="ltr">
								<tspan x="1550" dy="50" unicode-bidi="embed">Output &quot;Not a valid choice.</tspan>
								<tspan x="1550" dy="50" unicode-bidi="embed"> Please try again:&quot;</tspan>
							</text>
						</g>
						<g>
						</g>
						<ellipse cx="1025" cy="1625" rx="25" ry="25" fill="#FFD8D8" stroke="#A07878" stroke-width="3"/>
						<text x="1475" y="1040" fill="#404040" font-family="Arial" font-size="32pt" text-anchor="middle" direction="ltr">
							<tspan x="1475" dy="50" unicode-bidi="embed">True</tspan>
						</text>
						<text x="575" y="1040" fill="#404040" font-family="Arial" font-size="32pt" text-anchor="middle" direction="ltr">
							<tspan x="575" dy="50" unicode-bidi="embed">False</tspan>
						</text>
					</g>
				</g>
				<g>
					<path fill="#FFE0B0" stroke="#A08050" stroke-width="3" stroke-dasharray="none" d="M 100,1725 L 25,1800 L 100,1875 L 650,1875 L 725,1800 L 650,1725 Z"/>
					<text x="375" y="1740" fill="#402000" font-family="Arial" font-size="32pt" text-anchor="middle" direction="ltr">
						<tspan x="375" dy="50" unicode-bidi="embed">(choice &lt; 1 || choice &gt;</tspan>
						<tspan x="375" dy="50" unicode-bidi="embed"> upperBound) &amp;&amp; choice != -1</tspan>
					</text>
				</g>
				<ellipse cx="375" cy="650" rx="25" ry="25" fill="#FFE0B0" stroke="#A08050" stroke-width="3"/>
			</g>
		</g>
	</g>
</svg>
